:SAMPLES-PER-SECOND 30
:FULLY-SPECIFIED
:DEGREES
201
root  0.226665 22.0012 1.1102 -31.3993 82.8069 -4.83544
RightUpLeg  -55.385 -8.64789 -3.38581
RightLeg  94.2602 19.7203 -23.6283
RightFoot  -17.3608 0.319137 7.33173
RightToes  5.82077e-011 -3.18055e-015 -2.98177e-016
Spine  25.3585 -1.70494 9.80408
Spine1  9.8926 1.04055 0.0781419
HEad  -14.1163 2.09825 -4.24864
LeftShoulder1  -3.88251e-019 9.70628e-020 -3.87848e-018
LeftArm  -23.251 50.8914 -72.1197
LeftForeArm  -9.23948 -14.9609 -4.74197
LeftHand  -0.336067 -1.02636 6.60815
RightShoulder  8.25811 10.9946 38.0999
RightArm  8.80903 -39.9779 19.122
RightForeArm  15.3625 14.695 -3.97492
RightHand  -1.17722 5.86856 -12.1001
LeftUpLeg  -48.9555 -7.47767 14.4724
LeftLeg  105.984 -13.1435 -0.62584
LeftFoot  -30.4159 -1.98032 -12.4078
LeftToes  7.79675e-011 9.80247e-012 -3.28897e-011
202
root  0.247682 22.0045 1.10233 -30.3936 82.7557 -3.91544
RightUpLeg  -55.4926 -8.67829 -3.45977
RightLeg  94.3009 19.7234 -23.571
RightFoot  -17.43 0.321562 7.28915
RightToes  5.82077e-011 -3.18055e-015 -2.98177e-016
Spine  25.2691 -1.63478 9.94625
Spine1  9.94303 1.17652 -0.0709194
HEad  -13.645 1.95928 -4.49642
LeftShoulder1  -3.88251e-019 9.70628e-020 -3.87848e-018
LeftArm  -22.617 50.8674 -72.0104
LeftForeArm  -3.58621 -13.1634 -5.17752
LeftHand  -0.342871 -1.28696 6.47631
RightShoulder  8.21197 10.9858 37.8966
RightArm  9.71955 -39.8372 19.0749
RightForeArm  14.8423 15.0497 -3.98026
RightHand  -1.16996 5.67984 -12.2242
LeftUpLeg  -48.9391 -7.41201 14.3588
LeftLeg  105.986 -13.1618 -0.566765
LeftFoot  -30.5088 -1.99867 -12.4578
LeftToes  7.79675e-011 9.80247e-012 -3.28897e-011
203
root  0.253464 21.9992 1.10084 -31.1439 82.7496 -4.58707
RightUpLeg  -55.3779 -8.77162 -3.40493
RightLeg  94.3308 19.7242 -23.5228
RightFoot  -17.4766 0.323393 7.25104
RightToes  5.82077e-011 -3.18055e-015 -2.98177e-016
Spine  25.2048 -1.66707 10.3149
Spine1  10.203 1.30389 -0.322057
HEad  -13.3732 1.98767 -4.70361
LeftShoulder1  -3.88251e-019 9.70628e-020 -3.87848e-018
LeftArm  -21.3742 50.8615 -71.5348
LeftForeArm  1.37928 -11.9748 -5.60694
LeftHand  -0.330539 -1.3611 6.17586
RightShoulder  8.27055 11.0044 38.1379
RightArm  11.0876 -39.2975 18.7162
RightForeArm  14.2246 15.5144 -4.02659
RightHand  -1.16913 5.5848 -12.3173
LeftUpLeg  -48.8706 -7.4618 14.4443
LeftLeg  106.03 -13.1496 -0.602415
LeftFoot  -30.5597 -2.00472 -12.4593
LeftToes  7.79675e-011 9.80247e-012 -3.28897e-011
204
root  0.24775 21.9902 1.10493 -32.677 82.7841 -5.93867
RightUpLeg  -55.1297 -8.89135 -3.30666
RightLeg  94.3484 19.7224 -23.4847
RightFoot  -17.5171 0.324561 7.21966
RightToes  5.82077e-011 -3.18055e-015 -2.98177e-016
Spine  25.2083 -1.71346 10.5602
Spine1  10.5424 1.34623 -0.356062
HEad  -13.4221 2.27934 -4.83633
LeftShoulder1  -3.88251e-019 9.70628e-020 -3.87848e-018
LeftArm  -20.4471 51.2007 -71.1573
LeftForeArm  4.04021 -11.6375 -5.87828
LeftHand  -0.297427 -1.19798 5.70816
RightShoulder  8.32038 11.019 38.3455
RightArm  11.7419 -38.5459 18.5793
RightForeArm  14.5523 15.6697 -3.98584
RightHand  -1.18901 5.811 -12.2799
LeftUpLeg  -48.7584 -7.56839 14.609
LeftLeg  106.08 -13.1195 -0.694943
LeftFoot  -30.5871 -2.00353 -12.4316
LeftToes  7.79675e-011 9.80247e-012 -3.28897e-011
205
root  0.243413 21.9879 1.10688 -32.947 82.8027 -6.14859
RightUpLeg  -55.0567 -8.94774 -3.29776
RightLeg  94.3528 19.7189 -23.4629
RightFoot  -17.54 0.325062 7.1966
RightToes  5.82077e-011 -3.18055e-015 -2.98177e-016
Spine  25.1973 -1.66486 10.5255
Spine1  10.7598 1.36401 -0.227091
HEad  -13.5885 2.63082 -4.86368
LeftShoulder1  -3.88251e-019 9.70628e-020 -3.87848e-018
LeftArm  -20.3518 51.8943 -71.1861
LeftForeArm  5.21406 -11.9083 -5.8474
LeftHand  -0.290468 -1.2775 5.51029
RightShoulder  8.27448 11.0055 38.1543
RightArm  11.395 -37.9846 18.8968
RightForeArm  15.6171 15.5501 -3.94322
RightHand  -1.22113 6.1112 -12.2882
LeftUpLeg  -48.7133 -7.56922 14.6338
LeftLeg  106.086 -13.1033 -0.746273
LeftFoot  -30.6047 -2.00166 -12.4066
LeftToes  7.79675e-011 9.80247e-012 -3.28897e-011
206
root  0.242054 21.9929 1.10576 -31.9751 82.8056 -5.27371
RightUpLeg  -55.2009 -8.95053 -3.3686
RightLeg  94.3521 19.7148 -23.4473
RightFoot  -17.5259 0.325368 7.17805
RightToes  5.82077e-011 -3.18055e-015 -2.98177e-016
Spine  25.1468 -1.56361 10.4208
Spine1  10.8114 1.42998 -0.215611
HEad  -13.638 2.83891 -4.71899
LeftShoulder1  -3.88251e-019 9.70628e-020 -3.87848e-018
LeftArm  -20.7118 52.6773 -71.3955
LeftForeArm  5.97088 -12.454 -5.59452
LeftHand  -0.330875 -1.65287 5.92666
RightShoulder  8.182 10.9771 37.7707
RightArm  10.9336 -37.7551 19.3552
RightForeArm  16.0243 15.5572 -4.13944
RightHand  -1.23412 6.13729 -12.3901
LeftUpLeg  -48.7757 -7.47278 14.5274
LeftLeg  106.052 -13.105 -0.743781
LeftFoot  -30.5976 -1.9964 -12.378
LeftToes  7.79675e-011 9.80247e-012 -3.28897e-011
207
root  0.234379 21.9975 1.10783 -31.7308 82.8354 -5.07369
RightUpLeg  -55.2614 -8.97666 -3.38956
RightLeg  94.3382 19.7084 -23.4446
RightFoot  -17.4946 0.324785 7.16537
RightToes  5.82077e-011 -3.18055e-015 -2.98177e-016
Spine  25.1419 -1.49919 10.4591
Spine1  10.839 1.5216 -0.292671
HEad  -13.6149 2.86031 -4.44463
LeftShoulder1  -3.88251e-019 9.70628e-020 -3.87848e-018
LeftArm  -21.0279 53.342 -71.527
LeftForeArm  5.9188 -13.0885 -5.33787
LeftHand  -0.384684 -1.83266 6.70602
RightShoulder  8.11451 10.9566 37.4887
RightArm  11.0919 -37.6889 19.5709
RightForeArm  14.8147 15.8923 -4.55055
RightHand  -1.21703 5.88734 -12.482
LeftUpLeg  -48.8288 -7.44203 14.4963
LeftLeg  106.021 -13.1004 -0.761151
LeftFoot  -30.5627 -1.98621 -12.338
LeftToes  7.79675e-011 9.80247e-012 -3.28897e-011
208
root  0.220707 21.997 1.11389 -32.8231 82.9062 -6.06366
RightUpLeg  -55.1076 -9.04123 -3.33476
RightLeg  94.3134 19.7021 -23.4603
RightFoot  -17.4792 0.323177 7.16978
RightToes  5.82077e-011 -3.18055e-015 -2.98177e-016
Spine  25.1871 -1.45274 10.597
Spine1  10.9618 1.60388 -0.247337
HEad  -13.7035 2.70374 -4.16708
LeftShoulder1  -3.88251e-019 9.70628e-020 -3.87848e-018
LeftArm  -21.3551 53.8044 -71.7022
LeftForeArm  4.61189 -13.599 -5.19105
LeftHand  -0.415226 -1.73136 7.32632
RightShoulder  8.07201 10.9468 37.3036
RightArm  11.7645 -37.6069 19.5064
RightForeArm  12.3109 16.3693 -4.95192
RightHand  -1.19732 5.62824 -12.5612
LeftUpLeg  -48.7967 -7.53024 14.5931
LeftLeg  106.014 -13.0814 -0.822653
LeftFoot  -30.5348 -1.97963 -12.3161
LeftToes  7.79675e-011 9.80247e-012 -3.28897e-011
209
root  0.214193 21.9934 1.11757 -33.7163 82.995 -6.86332
RightUpLeg  -54.9663 -9.1069 -3.32976
RightLeg  94.317 19.7042 -23.4629
RightFoot  -17.4833 0.322153 7.19199
RightToes  5.82077e-011 -3.18055e-015 -2.98177e-016
Spine  25.1723 -1.38603 10.7259
Spine1  11.1345 1.69994 -0.200285
HEad  -13.8972 2.41652 -3.88797
LeftShoulder1  -3.88251e-019 9.70628e-020 -3.87848e-018
LeftArm  -21.8181 53.9998 -72.0045
LeftForeArm  3.01736 -13.7585 -5.11803
LeftHand  -0.429846 -1.79004 7.51797
RightShoulder  8.04705 10.9427 37.1909
RightArm  12.5377 -37.4579 19.3374
RightForeArm  9.63547 16.7746 -5.22457
RightHand  -1.19457 5.46474 -12.7147
LeftUpLeg  -48.7643 -7.63607 14.6425
LeftLeg  106.021 -13.0672 -0.867798
LeftFoot  -30.5455 -1.98284 -12.3289
LeftToes  7.79675e-011 9.80247e-012 -3.28897e-011
210
root  0.221533 21.9896 1.11737 -33.404 83.1028 -6.58306
RightUpLeg  -55.0029 -9.17202 -3.44504
RightLeg  94.3722 19.7199 -23.4346
RightFoot  -17.5022 0.324588 7.21671
RightToes  5.82077e-011 -3.18055e-015 -2.98177e-016
Spine  25.0507 -1.35645 10.8558
Spine1  11.271 1.81454 -0.448389
HEad  -14.0145 2.16485 -3.50945
LeftShoulder1  -3.88251e-019 9.70628e-020 -3.87848e-018
LeftArm  -22.1725 53.9339 -72.2049
LeftForeArm  2.34609 -13.6258 -5.06766
LeftHand  -0.432273 -2.00561 7.33744
RightShoulder  8.06681 10.9488 37.2736
RightArm  13.1381 -37.2505 19.2198
RightForeArm  7.8667 17.0504 -5.41089
RightHand  -1.1932 5.25921 -12.9366
LeftUpLeg  -48.8165 -7.70237 14.5402
LeftLeg  106.027 -13.069 -0.861632
LeftFoot  -30.579 -1.98903 -12.3443
LeftToes  7.79675e-011 9.80247e-012 -3.28897e-011
211
root  0.234814 21.9858 1.11998 -32.7563 83.2202 -6.00752
RightUpLeg  -55.0895 -9.23312 -3.57857
RightLeg  94.4357 19.7451 -23.4313
RightFoot  -17.5399 0.32805 7.24163
RightToes  5.82077e-011 -3.18055e-015 -2.98177e-016
Spine  24.8776 -1.4048 11.0157
Spine1  11.4107 1.90471 -0.914558
HEad  -14.0065 2.0846 -3.07212
LeftShoulder1  -3.88251e-019 9.70628e-020 -3.87848e-018
LeftArm  -22.252 53.7472 -72.2327
LeftForeArm  2.49739 -13.5414 -5.03638
LeftHand  -0.407959 -1.88635 7.04634
RightShoulder  8.1232 10.964 37.5145
RightArm  13.2215 -37.0308 19.2893
RightForeArm  7.62375 17.1474 -5.54418
RightHand  -1.18189 5.07838 -13.0279
LeftUpLeg  -48.9009 -7.7624 14.4098
LeftLeg  106.037 -13.0717 -0.852323
LeftFoot  -30.6035 -1.99085 -12.3381
LeftToes  7.79675e-011 9.80247e-012 -3.28897e-011
